<svg id="Calque_1" data-name="Calque 1" xmlns="http://www.w3.org/2000/svg" viewBox="0 0 24.22 33.46"><defs><style>.cls-1{fill:#fff;}</style></defs><polygon class="cls-1" points="12.11 5.59 18.94 9.51 18.94 16.44 24.22 19.91 24.22 6.93 12.11 0 0 6.93 0 19.91 5.28 16.44 5.28 9.51 12.11 5.59"/><polygon class="cls-1" points="12.11 28.02 18.94 24.12 18.94 18.07 24.22 21.54 24.22 26.53 12.11 33.47 0 26.53 0 21.54 5.28 18.07 5.28 24.12 12.11 28.02"/><polygon class="cls-1" points="12.11 9.37 15.12 11.12 15.12 14.14 17.33 15.59 17.33 10.05 12.11 7.07 6.89 10.05 6.89 15.59 9.09 14.14 9.09 11.12 12.11 9.37"/><polygon class="cls-1" points="12.11 23.95 15.12 22.11 15.12 18.84 17.33 17.3 17.33 23.39 12.11 26.38 6.89 23.39 6.89 17.3 9.09 18.84 9.09 22.11 12.11 23.95"/></svg>